# xmcd
#
# Track frame offsets:
#	150
#	34925
#	66231
#	96509
#	176815
#	191617
#	218462
#	238473
#	267239
#	288519
#
# Disc length: 4155 seconds
#
# Revision: 1
# Processed by: cddbd v1.4PL0 Copyright (c) Steve Scherf et al.
# Submitted via: CDmax 1.8
#
DISCID=9e10390a
DTITLE=Motor City Josh and The Big 3 - Live In Atlanta
DYEAR=2001
DGENRE=Blues
TTITLE0=Like A Rooster On A Hen
TTITLE1=Goin' To The Country
TTITLE2=Manish Boy
TTITLE3=Catfish Blues
TTITLE4=Still Drunk From Last Night
TTITLE5="Buckle Up" It's The Law
TTITLE6=Real Love
TTITLE7=Someone Else Been Gettin' That Good Thang
TTITLE8=Little Hoochie Mama
TTITLE9=Work Is A 4 Letter Word
EXTD=Live at The Blue Pig, Dec 9th 2000
EXTT0=
EXTT1=
EXTT2=
EXTT3=
EXTT4=
EXTT5=
EXTT6=
EXTT7=
EXTT8=
EXTT9=
PLAYORDER=
